<svg xmlns="http://www.w3.org/2000/svg" viewBox="0 0 120 120">
  <defs>
    <linearGradient id="glow" x1="0%" y1="0%" x2="100%" y2="100%">
      <stop offset="0%" stop-color="#ffd27a" />
      <stop offset="55%" stop-color="#ff7b54" />
      <stop offset="100%" stop-color="#a61b1b" />
    </linearGradient>
    <linearGradient id="cross" x1="50%" y1="0%" x2="50%" y2="100%">
      <stop offset="0%" stop-color="#fff9e9" />
      <stop offset="100%" stop-color="#ffd27a" />
    </linearGradient>
  </defs>
  <circle cx="60" cy="60" r="55" fill="#43160f" />
  <path
    d="M60 13 C69 23, 73 31, 71 40 C69 48, 63 51, 63 58 C63 66, 68 70, 72 76 C61 73, 52 65, 50 55 C47 40, 54 25, 60 13 Z"
    fill="url(#glow)"
  />
  <path
    d="M60 31 C76 31, 89 42, 89 58 C89 80, 68 91, 60 100 C52 91, 31 80, 31 58 C31 42, 44 31, 60 31 Z"
    fill="#7f0f14"
  />
  <path
    d="M60 39 C72 39, 81 47, 81 58 C81 74, 66 83, 60 90 C54 83, 39 74, 39 58 C39 47, 48 39, 60 39 Z"
    fill="url(#glow)"
  />
  <path d="M56 30 h8 v18 h16 v8 h-16 v28 h-8 v-28 h-16 v-8 h16 z" fill="url(#cross)" />
</svg>
